<?xml version="1.0" encoding="UTF-8" standalone="no"?>
<!-- Created with Inkscape (http://www.inkscape.org/) -->

<svg
   width="210mm"
   height="297mm"
   viewBox="0 0 210 297"
   version="1.1"
   id="svg5"
   inkscape:version="1.1.2 (b8e25be8, 2022-02-05)"
   sodipodi:docname="INVenv_logo.svg"
   xmlns:inkscape="http://www.inkscape.org/namespaces/inkscape"
   xmlns:sodipodi="http://sodipodi.sourceforge.net/DTD/sodipodi-0.dtd"
   xmlns="http://www.w3.org/2000/svg"
   xmlns:svg="http://www.w3.org/2000/svg">
  <sodipodi:namedview
     id="namedview7"
     pagecolor="#505050"
     bordercolor="#ffffff"
     borderopacity="1"
     inkscape:pageshadow="0"
     inkscape:pageopacity="0"
     inkscape:pagecheckerboard="1"
     inkscape:document-units="mm"
     showgrid="false"
     inkscape:snap-to-guides="false"
     inkscape:snap-grids="false"
     inkscape:zoom="0.68150253"
     inkscape:cx="165.07642"
     inkscape:cy="520.90783"
     inkscape:window-width="1920"
     inkscape:window-height="1080"
     inkscape:window-x="0"
     inkscape:window-y="0"
     inkscape:window-maximized="0"
     inkscape:current-layer="layer2" />
  <defs
     id="defs2">
    <rect
       x="581.06901"
       y="563.46086"
       width="479.82214"
       height="303.74062"
       id="rect112433" />
    <rect
       x="90.975452"
       y="176.08152"
       width="997.79528"
       height="887.74434"
       id="rect79195" />
    <rect
       x="269.99166"
       y="453.40991"
       width="539.98333"
       height="215.69986"
       id="rect40986" />
    <rect
       x="503.29968"
       y="327.21816"
       width="365.36915"
       height="93.910144"
       id="rect25530" />
    <rect
       x="120.32237"
       y="223.03659"
       width="526.77721"
       height="297.87124"
       id="rect5580" />
    <clipPath
       clipPathUnits="userSpaceOnUse"
       id="clipPath75897">
      <path
         id="path75899"
         style="fill:#ff0000;fill-opacity:1;fill-rule:nonzero;stroke:none"
         d="m -90.974609,-17.607422 v 6.414063 c 2.201556,3.1328525 3.607526,5.1330404 9.332031,13.2539059 4.314599,6.1207532 8.460328,12.3752351 13.128906,18.2304691 11.534816,14.466723 23.531748,28.560147 35.458984,42.705078 38.3934041,45.532096 36.3362687,41.591896 87.111329,95.876956 49.110949,50.96676 41.417804,45.95378 100.142579,93.38281 11.2271,9.06757 22.70533,17.89538 34.85742,25.67969 49.07218,31.43432 101.32923,57.50891 152.97266,84.32617 6.81968,3.44585 13.75057,6.6801 20.45898,10.33789 34.42033,18.76815 24.85461,14.4538 53.61719,31.29101 22.70252,13.28977 45.68761,25.9678 68.87305,38.38086 15.87991,8.58297 32.476,15.72593 48.79687,23.4043 5.81632,2.73638 11.60576,5.52779 17.39063,8.33008 1.20327,0.58273 0.82413,0.42095 1.67382,0.83984 0.60801,-0.064 1.44351,0.18157 2.64063,0.75 0.26214,0.12447 1.39673,0.69327 2.4043,1.19922 0.46095,-0.23403 1.04528,0.37065 1.60937,0.83399 0.33564,0.17399 0.4597,0.2484 0.7168,0.38671 8.03321,1.2217 16.05998,1.35685 24.20117,1.66407 4.66877,0.17627 9.35022,0.80682 14.00781,0.43945 15.27674,-1.20533 29.15203,-4.32306 44.03906,-7.27344 12.70991,-3.21165 23.5224,-8.54047 34.28321,-15.67187 3.22601,-2.13797 6.2987,-4.63414 9.39843,-6.95703 0.32508,-0.6118 0.62765,-1.23624 0.97461,-1.83594 0.45778,-0.79158 1.04961,-1.50784 1.4375,-2.33594 0.43887,-0.93689 0.70429,-2.24121 0.91797,-3.56054 -0.2182,-0.70381 -0.18613,-1.79765 0.19922,-3.44336 1.27846,-5.45991 0.60552,-4.22368 14.33594,-2.16407 0.75029,0.11254 0.69373,1.07686 0.61133,2.03516 -0.15096,-4.55839 -8.85176,3.5501 -13.05078,4.46875 3.52262,2.58433 11.28299,2.45595 12.50195,-1.51367 0.34523,-1.12429 0.50267,-1.96963 0.53125,-2.62305 -0.0233,0.29199 -0.0597,0.61363 -0.043,0.84961 0.0476,0.67544 -0.11959,1.34898 -0.17969,2.02344 -0.45513,2.3193 -0.73107,4.83144 -1.48437,7.06836 -1.68061,4.99037 -4.36956,8.91684 -7.95508,12.77343 -3.43858,2.57579 -6.86334,5.32483 -10.45117,7.67774 -12.24733,8.03187 -24.80605,14.01511 -39.1836,17.60547 -17.35286,3.41525 -29.00234,6.13445 -47.34375,7.54297 -4.7221,0.36264 -9.46882,-0.26132 -14.20117,-0.44727 -9.2039,-0.36157 -17.81643,-0.35029 -26.5664,-2.28711 -0.10867,0.30127 -0.24416,0.59736 -0.34375,0.90039 -2.847,-1.18805 -3.03843,-1.27392 -3.58594,-1.54687 -0.006,-0.002 -0.0117,-0.006 -0.0176,-0.008 -0.72968,-0.36448 -1.86,-0.97982 -8.41602,-4.15625 -5.7217,-2.7722 -11.44808,-5.53367 -17.20117,-8.24023 -16.58286,-7.80147 -33.44276,-15.06982 -49.57617,-23.79297 -23.40393,-12.5325 -46.60214,-25.33239 -69.51953,-38.74805 -27.962,-16.36868 -19.39031,-12.61972 -52.66211,-30.76171 -6.75592,-3.6838 -13.73561,-6.94157 -20.60352,-10.41211 C 282.93487,348.11004 230.0429,321.65122 180.34766,289.74414 167.91407,281.76109 156.16885,272.71721 144.68164,263.42383 85.235505,215.33071 92.807006,220.23559 43.339844,168.89648 -7.1784067,114.8696 -6.0232105,117.856 -44.347656,72.367188 -56.485069,57.960808 -68.683694,43.598722 -80.421875,28.865234 -84.153154,24.181818 -87.558003,19.249555 -90.974609,14.328125 V 831.98438 H 856.92969 V -17.607422 Z" />
    </clipPath>
    <clipPath
       clipPathUnits="userSpaceOnUse"
       id="clipPath75907">
      <path
         id="path75909"
         style="fill:#ff0000;fill-opacity:1;fill-rule:nonzero;stroke:none"
         d="m -90.242188,-16.875 v 6.722656 c 2.187338,3.1011021 3.324618,4.7297114 8.59961,12.2128909 4.314599,6.1207532 8.460328,12.3752351 13.128906,18.2304691 11.534816,14.466723 23.531748,28.560147 35.458984,42.705078 38.3934041,45.532096 36.3362687,41.591896 87.111329,95.876956 49.110949,50.96676 41.417804,45.95378 100.142579,93.38281 11.2271,9.06757 22.70533,17.89538 34.85742,25.67969 49.07218,31.43432 101.32923,57.50891 152.97266,84.32617 6.81968,3.44585 13.75057,6.6801 20.45898,10.33789 34.42033,18.76815 24.85461,14.4538 53.61719,31.29101 22.70252,13.28977 45.68761,25.9678 68.87305,38.38086 15.87991,8.58297 32.476,15.72593 48.79687,23.4043 5.81632,2.73638 11.60576,5.52779 17.39063,8.33008 1.20327,0.58273 0.82413,0.42095 1.67382,0.83984 0.60801,-0.064 1.44351,0.18157 2.64063,0.75 0.26214,0.12447 1.39673,0.69327 2.4043,1.19922 0.46095,-0.23403 1.04528,0.37065 1.60937,0.83399 0.33564,0.17399 0.4597,0.2484 0.7168,0.38671 8.03321,1.2217 16.05998,1.35685 24.20117,1.66407 4.66877,0.17627 9.35022,0.80682 14.00781,0.43945 15.27674,-1.20533 29.15203,-4.32306 44.03906,-7.27344 12.70991,-3.21165 23.5224,-8.54047 34.28321,-15.67187 3.22601,-2.13797 6.2987,-4.63414 9.39843,-6.95703 0.32508,-0.6118 0.62765,-1.23624 0.97461,-1.83594 0.45778,-0.79158 1.04961,-1.50784 1.4375,-2.33594 0.43887,-0.93689 0.70429,-2.24121 0.91797,-3.56054 -0.2182,-0.70381 -0.18613,-1.79765 0.19922,-3.44336 1.27846,-5.45991 0.60552,-4.22368 14.33594,-2.16407 0.75029,0.11254 0.69373,1.07686 0.61133,2.03516 -0.15096,-4.55839 -8.85176,3.5501 -13.05078,4.46875 3.52262,2.58433 11.28299,2.45595 12.50195,-1.51367 0.34523,-1.12429 0.50267,-1.96963 0.53125,-2.62305 -0.0233,0.29199 -0.0597,0.61363 -0.043,0.84961 0.0476,0.67544 -0.11959,1.34898 -0.17969,2.02344 -0.45513,2.3193 -0.73107,4.83144 -1.48437,7.06836 -1.68061,4.99037 -4.36956,8.91684 -7.95508,12.77343 -3.43858,2.57579 -6.86334,5.32483 -10.45117,7.67774 -12.24733,8.03187 -24.80605,14.01511 -39.1836,17.60547 -17.35286,3.41525 -29.00234,6.13445 -47.34375,7.54297 -4.7221,0.36264 -9.46882,-0.26132 -14.20117,-0.44727 -9.2039,-0.36157 -17.81643,-0.35029 -26.5664,-2.28711 -0.10867,0.30127 -0.24416,0.59736 -0.34375,0.90039 -2.847,-1.18805 -3.03843,-1.27392 -3.58594,-1.54687 -0.006,-0.002 -0.0117,-0.006 -0.0176,-0.008 -0.72968,-0.36448 -1.86,-0.97982 -8.41602,-4.15625 -5.7217,-2.7722 -11.44808,-5.53367 -17.20117,-8.24023 -16.58286,-7.80147 -33.44276,-15.06982 -49.57617,-23.79297 -23.40393,-12.5325 -46.60214,-25.33239 -69.51953,-38.74805 -27.962,-16.36868 -19.39031,-12.61972 -52.66211,-30.76171 -6.75592,-3.6838 -13.73561,-6.94157 -20.60352,-10.41211 C 282.93487,348.11004 230.0429,321.65122 180.34766,289.74414 167.91407,281.76109 156.16885,272.71721 144.68164,263.42383 85.235505,215.33071 92.807006,220.23559 43.339844,168.89648 -7.1784067,114.8696 -6.0232105,117.856 -44.347656,72.367188 -56.485069,57.960808 -68.683694,43.598722 -80.421875,28.865234 -83.887239,24.515588 -87.068971,19.949901 -90.242188,15.378906 V 831.44336 H 856.33984 V -16.875 Z" />
    </clipPath>
    <clipPath
       clipPathUnits="userSpaceOnUse"
       id="clipPath75917">
      <path
         id="path75919"
         style="fill:#ff0000;fill-opacity:1;fill-rule:nonzero;stroke:none"
         d="m 545.85352,339.93555 v 29.62109 h 20.82031 v -29.62109 z" />
    </clipPath>
    <clipPath
       clipPathUnits="userSpaceOnUse"
       id="clipPath75927">
      <path
         id="path75929"
         style="fill:#ff0000;fill-opacity:1;fill-rule:nonzero;stroke:none"
         d="m 424.0625,339.24414 v 9.98438 h 21.71875 v -9.98438 z" />
    </clipPath>
    <clipPath
       clipPathUnits="userSpaceOnUse"
       id="clipPath75937">
      <path
         id="path75939"
         style="fill:#ff0000;fill-opacity:1;fill-rule:nonzero;stroke:none"
         d="M 42.191406,238.06836 V 377.66211 H 339.96875 c -1.57541,-0.77765 -3.13537,-1.58473 -4.70313,-2.37695 -52.33075,-27.17512 -105.22272,-53.63394 -154.91796,-85.54102 -12.43359,-7.98305 -24.17881,-17.02693 -35.66602,-26.32031 -13.53557,-10.95055 -22.87675,-18.61069 -30.92773,-25.35547 z m 94.675784,0 c 5.63823,4.61308 9.73975,8.0556 17.33203,14.1875 11.2271,9.06757 22.70533,17.89538 34.85742,25.67969 49.07218,31.43432 101.32923,57.50891 152.97266,84.32617 6.81968,3.44585 13.75057,6.6801 20.45898,10.33789 5.32267,2.90226 5.42387,3.1006 8.94727,5.0625 h 11.34961 V 238.06836 Z" />
    </clipPath>
    <clipPath
       clipPathUnits="userSpaceOnUse"
       id="clipPath75947">
      <path
         id="path75949"
         style="fill:#ff0000;fill-opacity:1;fill-rule:nonzero;stroke:none"
         d="m 416.69531,329.85352 v 53.30859 h 236.07031 v -53.30859 z" />
    </clipPath>
    <clipPath
       clipPathUnits="userSpaceOnUse"
       id="clipPath75957">
      <path
         id="path75959"
         style="fill:#ff0000;fill-opacity:1;fill-rule:nonzero;stroke:none"
         d="m 183.98633,468.0918 v 71.67187 H 407.7207 V 468.0918 Z" />
    </clipPath>
    <clipPath
       clipPathUnits="userSpaceOnUse"
       id="clipPath75967">
      <path
         id="path75969"
         style="fill:#ff0000;fill-opacity:1;fill-rule:nonzero;stroke:none"
         d="m -89.197266,-15.880859 v 7.2128902 c 2.145213,3.0306371 2.920769,4.1547709 7.554688,10.7285157 4.314599,6.1207532 8.460328,12.3752351 13.128906,18.2304691 11.534816,14.466723 23.531748,28.560147 35.458984,42.705078 38.3934041,45.532096 36.3362687,41.591896 87.111329,95.876956 49.110949,50.96676 41.417804,45.95378 100.142579,93.38281 11.2271,9.06757 22.70533,17.89538 34.85742,25.67969 49.07218,31.43432 101.32923,57.50891 152.97266,84.32617 6.81968,3.44585 13.75057,6.6801 20.45898,10.33789 34.42033,18.76815 24.85461,14.4538 53.61719,31.29101 22.70252,13.28977 45.68761,25.9678 68.87305,38.38086 15.87991,8.58297 32.476,15.72593 48.79687,23.4043 5.81632,2.73638 11.60576,5.52779 17.39063,8.33008 1.20327,0.58273 0.82413,0.42095 1.67382,0.83984 0.60801,-0.064 1.44351,0.18157 2.64063,0.75 0.26214,0.12447 1.39673,0.69327 2.4043,1.19922 0.46095,-0.23403 1.04528,0.37065 1.60937,0.83399 0.33564,0.17399 0.4597,0.2484 0.7168,0.38671 8.03321,1.2217 16.05998,1.35685 24.20117,1.66407 4.66877,0.17627 9.35022,0.80682 14.00781,0.43945 15.27674,-1.20533 29.15203,-4.32306 44.03906,-7.27344 12.70991,-3.21165 23.5224,-8.54047 34.28321,-15.67187 3.22601,-2.13797 6.2987,-4.63414 9.39843,-6.95703 0.32508,-0.6118 0.62765,-1.23624 0.97461,-1.83594 0.45778,-0.79158 1.04961,-1.50784 1.4375,-2.33594 0.43887,-0.93689 0.70429,-2.24121 0.91797,-3.56054 -0.2182,-0.70381 -0.18613,-1.79765 0.19922,-3.44336 1.27846,-5.45991 0.60552,-4.22368 14.33594,-2.16407 0.75029,0.11254 0.69373,1.07686 0.61133,2.03516 -0.15096,-4.55839 -8.85176,3.5501 -13.05078,4.46875 3.52262,2.58433 11.28299,2.45595 12.50195,-1.51367 0.34523,-1.12429 0.50267,-1.96963 0.53125,-2.62305 -0.0233,0.29199 -0.0597,0.61363 -0.043,0.84961 0.0476,0.67544 -0.11959,1.34898 -0.17969,2.02344 -0.45513,2.3193 -0.73107,4.83144 -1.48437,7.06836 -1.68061,4.99037 -4.36956,8.91684 -7.95508,12.77343 -3.43858,2.57579 -6.86334,5.32483 -10.45117,7.67774 -12.24733,8.03187 -24.80605,14.01511 -39.1836,17.60547 -17.35286,3.41525 -29.00234,6.13445 -47.34375,7.54297 -4.7221,0.36264 -9.46882,-0.26132 -14.20117,-0.44727 -9.2039,-0.36157 -17.81643,-0.35029 -26.5664,-2.28711 -0.10867,0.30127 -0.24416,0.59736 -0.34375,0.90039 -2.847,-1.18805 -3.03843,-1.27392 -3.58594,-1.54687 -0.006,-0.002 -0.0117,-0.006 -0.0176,-0.008 -0.72968,-0.36448 -1.86,-0.97982 -8.41602,-4.15625 -5.7217,-2.7722 -11.44808,-5.53367 -17.20117,-8.24023 -16.58286,-7.80147 -33.44276,-15.06982 -49.57617,-23.79297 -23.40393,-12.5325 -46.60214,-25.33239 -69.51953,-38.74805 -27.962,-16.36868 -19.39031,-12.61972 -52.66211,-30.76171 -6.75592,-3.6838 -13.73561,-6.94157 -20.60352,-10.41211 C 282.93487,348.11004 230.0429,321.65122 180.34766,289.74414 167.91407,281.76109 156.16885,272.71721 144.68164,263.42383 85.235505,215.33071 92.807006,220.23559 43.339844,168.89648 -7.1784067,114.8696 -6.0232105,117.856 -44.347656,72.367188 -56.485069,57.960808 -68.683694,43.598722 -80.421875,28.865234 -83.508049,24.99154 -86.366245,20.944359 -89.197266,16.876953 V 830.51758 H 855.35547 V -15.880859 Z" />
    </clipPath>
  </defs>
  <g
     inkscape:label="Layer 1"
     inkscape:groupmode="layer"
     id="layer1" />
  <g
     inkscape:groupmode="layer"
     id="layer2"
     inkscape:label="lettering">
    <rect
       style="fill:#002855;fill-opacity:1;stroke-width:0.264583"
       id="rect76001"
       width="253.12941"
       height="225.17647"
       x="-1.1647059"
       y="0"
       ry="9.5374088" />
    <text
       xml:space="preserve"
       transform="scale(0.26458333)"
       id="text79193"
       style="font-style:normal;font-variant:normal;font-weight:normal;font-stretch:normal;font-size:192px;line-height:1.25;font-family:'Apple Symbols';-inkscape-font-specification:'Apple Symbols';white-space:pre;shape-inside:url(#rect79195);fill:#eaaa00;fill-opacity:1"><tspan
         x="90.974609"
         y="339.7091"
         id="tspan213611"><tspan
           style="font-size:96px;font-family:Phosphate;-inkscape-font-specification:Phosphate"
           id="tspan213609">INVentory  envy
</tspan></tspan><tspan
         x="90.974609"
         y="627.3101"
         id="tspan213615"><tspan
   style="font-size:96px;font-family:Phosphate;-inkscape-font-specification:Phosphate"
   id="tspan213613">              </tspan>$$$
</tspan></text>
    <text
       xml:space="preserve"
       transform="scale(0.26458333)"
       id="text112431"
       style="line-height:1.25;font-family:sans-serif;font-size:26.66666667px;white-space:pre;shape-inside:url(#rect112433)" />
  </g>
</svg>
